<svg width="313" height="251" viewBox="0 0 313 251" fill="none" xmlns="http://www.w3.org/2000/svg">
<g style="mix-blend-mode:overlay">
<path d="M26.5201 36.2617C48.442 12.4961 81.6139 0.449219 125.098 0.449219H140.723V44.4961L128.161 47.0117C106.754 51.293 91.8639 59.7148 83.8951 72.0742C79.7372 78.7325 77.379 86.3562 77.0514 94.1992H125.098C129.242 94.1992 133.217 95.8454 136.147 98.7757C139.077 101.706 140.723 105.68 140.723 109.824V219.199C140.723 236.434 126.708 250.449 109.473 250.449H15.7232C11.5792 250.449 7.60496 248.803 4.6747 245.873C1.74445 242.943 0.0982473 238.968 0.0982473 234.824V156.699L0.145123 111.09C0.00449769 109.355 -2.96425 68.2617 26.5201 36.2617ZM281.348 250.449H187.598C183.454 250.449 179.48 248.803 176.55 245.873C173.619 242.943 171.973 238.968 171.973 234.824V156.699L172.02 111.09C171.879 109.355 168.911 68.2617 198.395 36.2617C220.317 12.4961 253.489 0.449219 296.973 0.449219H312.598V44.4961L300.036 47.0117C278.629 51.293 263.739 59.7148 255.77 72.0742C251.612 78.7325 249.254 86.3562 248.926 94.1992H296.973C301.117 94.1992 305.091 95.8454 308.022 98.7757C310.952 101.706 312.598 105.68 312.598 109.824V219.199C312.598 236.434 298.583 250.449 281.348 250.449Z" fill="#323232"/>
</g>
</svg>
